<svg xmlns="http://www.w3.org/2000/svg" viewBox="0 0 80 112" fill="#adc6ff">
  <!-- Highlight -->
  <path fill="#d8e2ff" d="
    M 8,0 h8 v8 h-8 Z M 16,0 h8 v8 h-8 Z M 24,0 h8 v8 h-8 Z M 32,0 h8 v8 h-8 Z M 40,0 h8 v8 h-8 Z M 48,0 h8 v8 h-8 Z M 56,0 h8 v8 h-8 Z M 64,0 h8 v8 h-8 Z
    M 8,8 h8 v8 h-8 Z
    M 8,16 h8 v8 h-8 Z M 56,16 h8 v8 h-8 Z
    M 8,24 h8 v8 h-8 Z
    M 8,32 h8 v8 h-8 Z
    M 16,40 h8 v8 h-8 Z
    M 16,48 h8 v8 h-8 Z
    M 16,56 h8 v8 h-8 Z
    M 16,64 h8 v8 h-8 Z
    M 16,72 h8 v8 h-8 Z
    M 8,80 h8 v8 h-8 Z
    M 8,88 h8 v8 h-8 Z
    M 0,96 h8 v8 h-8 Z
    M 0,104 h8 v8 h-8 Z
  "/>
  <!-- Base -->
  <path fill="#adc6ff" d="
    M 16,8 h8 v8 h-8 Z M 24,8 h8 v8 h-8 Z M 32,8 h8 v8 h-8 Z M 40,8 h8 v8 h-8 Z M 48,8 h8 v8 h-8 Z M 56,8 h8 v8 h-8 Z
    M 16,16 h8 v8 h-8 Z
    M 16,24 h8 v8 h-8 Z M 24,24 h8 v8 h-8 Z M 32,24 h8 v8 h-8 Z M 40,24 h8 v8 h-8 Z M 48,24 h8 v8 h-8 Z M 56,24 h8 v8 h-8 Z
    M 16,32 h8 v8 h-8 Z M 24,32 h8 v8 h-8 Z M 32,32 h8 v8 h-8 Z M 40,32 h8 v8 h-8 Z M 48,32 h8 v8 h-8 Z M 56,32 h8 v8 h-8 Z
    M 24,40 h8 v8 h-8 Z M 32,40 h8 v8 h-8 Z M 40,40 h8 v8 h-8 Z M 48,40 h8 v8 h-8 Z
    M 24,48 h8 v8 h-8 Z M 32,48 h8 v8 h-8 Z M 40,48 h8 v8 h-8 Z M 48,48 h8 v8 h-8 Z
    M 24,56 h8 v8 h-8 Z M 32,56 h8 v8 h-8 Z M 40,56 h8 v8 h-8 Z M 48,56 h8 v8 h-8 Z
    M 24,64 h8 v8 h-8 Z M 32,64 h8 v8 h-8 Z M 40,64 h8 v8 h-8 Z M 48,64 h8 v8 h-8 Z
    M 24,72 h8 v8 h-8 Z M 32,72 h8 v8 h-8 Z M 40,72 h8 v8 h-8 Z M 48,72 h8 v8 h-8 Z
    M 16,80 h8 v8 h-8 Z M 24,80 h8 v8 h-8 Z M 32,80 h8 v8 h-8 Z M 40,80 h8 v8 h-8 Z M 48,80 h8 v8 h-8 Z M 56,80 h8 v8 h-8 Z
    M 16,88 h8 v8 h-8 Z M 24,88 h8 v8 h-8 Z M 32,88 h8 v8 h-8 Z M 40,88 h8 v8 h-8 Z M 48,88 h8 v8 h-8 Z M 56,88 h8 v8 h-8 Z
    M 8,96 h8 v8 h-8 Z M 16,96 h8 v8 h-8 Z M 24,96 h8 v8 h-8 Z M 32,96 h8 v8 h-8 Z M 40,96 h8 v8 h-8 Z M 48,96 h8 v8 h-8 Z M 56,96 h8 v8 h-8 Z M 64,96 h8 v8 h-8 Z
    M 8,104 h8 v8 h-8 Z M 16,104 h8 v8 h-8 Z M 24,104 h8 v8 h-8 Z M 32,104 h8 v8 h-8 Z M 40,104 h8 v8 h-8 Z M 48,104 h8 v8 h-8 Z M 56,104 h8 v8 h-8 Z M 64,104 h8 v8 h-8 Z
  "/>
  <!-- Shadow -->
  <path fill="#7a9ee0" d="
    M 64,8 h8 v8 h-8 Z
    M 16,16 h8 v8 h-8 Z M 64,16 h8 v8 h-8 Z
    M 64,24 h8 v8 h-8 Z
    M 64,32 h8 v8 h-8 Z
    M 56,40 h8 v8 h-8 Z
    M 56,48 h8 v8 h-8 Z
    M 56,56 h8 v8 h-8 Z
    M 56,64 h8 v8 h-8 Z
    M 56,72 h8 v8 h-8 Z
    M 64,80 h8 v8 h-8 Z
    M 64,88 h8 v8 h-8 Z
    M 72,96 h8 v8 h-8 Z
    M 72,104 h8 v8 h-8 Z
  "/>
</svg>
